<svg xmlns="http://www.w3.org/2000/svg" xmlns:xlink="http://www.w3.org/1999/xlink" width="500" zoomAndPan="magnify" viewBox="0 0 375 374.999991" height="500" preserveAspectRatio="xMidYMid meet" version="1.2"><defs><clipPath id="fc91cebd60"><path d="M 18.703125 313.648438 L 83.203125 313.648438 L 83.203125 375 L 18.703125 375 Z M 18.703125 313.648438 "/></clipPath><clipPath id="72bab52515"><path d="M 252.832031 337.910156 L 317.332031 337.910156 L 317.332031 375 L 252.832031 375 Z M 252.832031 337.910156 "/></clipPath><clipPath id="08710515c7"><path d="M 149.523438 262.910156 L 209.523438 262.910156 L 209.523438 322.910156 L 149.523438 322.910156 Z M 149.523438 262.910156 "/></clipPath><clipPath id="e0ed872437"><path d="M 44 188.195312 L 67 188.195312 L 67 239.195312 L 44 239.195312 Z M 44 188.195312 "/></clipPath><clipPath id="d020558217"><path d="M 261.59375 188.195312 L 317.09375 188.195312 L 317.09375 244.445312 L 261.59375 244.445312 Z M 261.59375 188.195312 "/></clipPath><clipPath id="6f8ce809d8"><path d="M 172 169 L 190 169 L 190 187.261719 L 172 187.261719 Z M 172 169 "/></clipPath><clipPath id="545153ee69"><path d="M 172 178 L 181 178 L 181 187.261719 L 172 187.261719 Z M 172 178 "/></clipPath><clipPath id="a63b6643b5"><path d="M 149.523438 162 L 171 162 L 171 187 L 149.523438 187 Z M 149.523438 162 "/></clipPath><clipPath id="6f11c00c36"><path d="M 166 128.761719 L 169 128.761719 L 169 133 L 166 133 Z M 166 128.761719 "/></clipPath></defs><g id="83825021cc"><g clip-rule="nonzero" clip-path="url(#fc91cebd60)"><path style=" stroke:none;fill-rule:evenodd;fill:#ffffff;fill-opacity:1;" d="M 82.722656 339.6875 L 82.71875 339.679688 C 82.617188 339.488281 82.484375 339.308594 82.328125 339.144531 L 82.285156 339.101562 C 82.285156 339.101562 67.921875 324.734375 67.921875 324.734375 C 67.820312 324.566406 67.699219 324.410156 67.558594 324.269531 C 67.09375 323.800781 66.464844 323.539062 65.804688 323.539062 L 31.085938 323.539062 C 29.71875 323.539062 28.613281 324.648438 28.613281 326.011719 L 28.613281 385.355469 C 28.613281 386.722656 29.71875 387.828125 31.085938 387.828125 L 80.539062 387.828125 C 81.902344 387.828125 83.011719 386.722656 83.011719 385.355469 L 83.011719 340.847656 C 83.011719 340.429688 82.90625 340.03125 82.722656 339.6875 Z M 63.230469 340.832031 C 63.226562 341.492188 63.484375 342.125 63.945312 342.59375 C 64.410156 343.058594 65.046875 343.320312 65.703125 343.320312 L 78.066406 343.320312 C 78.066406 343.320312 78.066406 382.882812 78.066406 382.882812 C 78.066406 382.882812 33.558594 382.882812 33.558594 382.882812 C 33.558594 382.882812 33.558594 328.484375 33.558594 328.484375 C 33.558594 328.484375 63.3125 328.484375 63.3125 328.484375 C 63.3125 328.484375 63.230469 340.832031 63.230469 340.832031 Z M 60.757812 313.648438 L 21.195312 313.648438 C 19.828125 313.648438 18.722656 314.757812 18.722656 316.121094 L 18.722656 375.464844 C 18.722656 376.832031 19.828125 377.9375 21.195312 377.9375 C 22.558594 377.9375 23.667969 376.832031 23.667969 375.464844 L 23.667969 318.59375 C 23.667969 318.59375 60.757812 318.59375 60.757812 318.59375 C 62.121094 318.59375 63.230469 317.488281 63.230469 316.121094 C 63.230469 314.757812 62.121094 313.648438 60.757812 313.648438 Z M 40.976562 366.636719 L 68.175781 366.636719 C 69.539062 366.636719 70.648438 365.527344 70.648438 364.164062 C 70.648438 362.796875 69.539062 361.691406 68.175781 361.691406 L 40.976562 361.691406 C 39.609375 361.691406 38.503906 362.796875 38.503906 364.164062 C 38.503906 365.527344 39.609375 366.636719 40.976562 366.636719 Z M 40.976562 358.15625 L 60.757812 358.15625 C 62.121094 358.15625 63.230469 357.050781 63.230469 355.683594 C 63.230469 354.320312 62.121094 353.210938 60.757812 353.210938 L 40.976562 353.210938 C 39.609375 353.210938 38.503906 354.320312 38.503906 355.683594 C 38.503906 357.050781 39.609375 358.15625 40.976562 358.15625 Z M 40.976562 349.679688 L 55.8125 349.679688 C 57.175781 349.679688 58.285156 348.570312 58.285156 347.207031 C 58.285156 345.84375 57.175781 344.734375 55.8125 344.734375 L 40.976562 344.734375 C 39.609375 344.734375 38.503906 345.84375 38.503906 347.207031 C 38.503906 348.570312 39.609375 349.679688 40.976562 349.679688 Z M 68.191406 338.375 L 74.570312 338.375 L 68.234375 332.042969 Z M 68.191406 338.375 "/></g><g clip-rule="nonzero" clip-path="url(#72bab52515)"><path style=" stroke:none;fill-rule:evenodd;fill:#ffffff;fill-opacity:1;" d="M 316.851562 363.945312 L 316.84375 363.9375 C 316.742188 363.75 316.613281 363.566406 316.457031 363.402344 L 316.414062 363.359375 C 316.414062 363.359375 302.046875 348.996094 302.046875 348.996094 C 301.945312 348.824219 301.824219 348.671875 301.6875 348.527344 C 301.222656 348.0625 300.59375 347.800781 299.933594 347.800781 L 265.214844 347.800781 C 263.847656 347.800781 262.742188 348.90625 262.742188 350.273438 L 262.742188 409.617188 C 262.742188 410.980469 263.847656 412.089844 265.214844 412.089844 L 314.667969 412.089844 C 316.03125 412.089844 317.140625 410.980469 317.140625 409.617188 L 317.140625 365.109375 C 317.140625 364.6875 317.035156 364.292969 316.851562 363.945312 Z M 297.359375 365.089844 C 297.351562 365.75 297.613281 366.382812 298.074219 366.851562 C 298.539062 367.320312 299.171875 367.582031 299.832031 367.582031 L 312.195312 367.582031 C 312.195312 367.582031 312.195312 407.144531 312.195312 407.144531 C 312.195312 407.144531 267.6875 407.144531 267.6875 407.144531 C 267.6875 407.144531 267.6875 352.746094 267.6875 352.746094 C 267.6875 352.746094 297.441406 352.746094 297.441406 352.746094 C 297.441406 352.746094 297.359375 365.089844 297.359375 365.089844 Z M 294.886719 337.910156 L 255.324219 337.910156 C 253.957031 337.910156 252.851562 339.015625 252.851562 340.382812 L 252.851562 399.726562 C 252.851562 401.089844 253.957031 402.199219 255.324219 402.199219 C 256.6875 402.199219 257.796875 401.089844 257.796875 399.726562 L 257.796875 342.855469 C 257.796875 342.855469 294.886719 342.855469 294.886719 342.855469 C 296.25 342.855469 297.359375 341.746094 297.359375 340.382812 C 297.359375 339.015625 296.25 337.910156 294.886719 337.910156 Z M 275.105469 390.894531 L 302.304688 390.894531 C 303.667969 390.894531 304.777344 389.785156 304.777344 388.421875 C 304.777344 387.058594 303.667969 385.949219 302.304688 385.949219 L 275.105469 385.949219 C 273.738281 385.949219 272.632812 387.058594 272.632812 388.421875 C 272.632812 389.785156 273.738281 390.894531 275.105469 390.894531 Z M 275.105469 382.417969 L 294.886719 382.417969 C 296.25 382.417969 297.359375 381.308594 297.359375 379.945312 C 297.359375 378.578125 296.25 377.472656 294.886719 377.472656 L 275.105469 377.472656 C 273.738281 377.472656 272.632812 378.578125 272.632812 379.945312 C 272.632812 381.308594 273.738281 382.417969 275.105469 382.417969 Z M 275.105469 373.9375 L 289.941406 373.9375 C 291.304688 373.9375 292.414062 372.832031 292.414062 371.464844 C 292.414062 370.101562 291.304688 368.992188 289.941406 368.992188 L 275.105469 368.992188 C 273.738281 368.992188 272.632812 370.101562 272.632812 371.464844 C 272.632812 372.832031 273.738281 373.9375 275.105469 373.9375 Z M 302.320312 362.636719 L 308.699219 362.636719 L 302.363281 356.304688 Z M 302.320312 362.636719 "/></g><g clip-rule="nonzero" clip-path="url(#08710515c7)"><path style=" stroke:none;fill-rule:nonzero;fill:#ffffff;fill-opacity:1;" d="M 179.675781 262.910156 C 163.023438 262.910156 149.523438 276.410156 149.523438 293.0625 C 149.523438 309.710938 163.023438 323.214844 179.675781 323.214844 C 182.457031 323.214844 184.699219 320.96875 184.699219 318.1875 C 184.699219 316.882812 184.214844 315.710938 183.394531 314.820312 C 182.605469 313.933594 182.136719 312.777344 182.136719 311.488281 C 182.136719 308.707031 184.382812 306.460938 187.164062 306.460938 L 193.078125 306.460938 C 202.324219 306.460938 209.828125 298.957031 209.828125 289.710938 C 209.828125 274.902344 196.328125 262.910156 179.675781 262.910156 Z M 161.25 293.0625 C 158.46875 293.0625 156.222656 290.816406 156.222656 288.035156 C 156.222656 285.253906 158.46875 283.011719 161.25 283.011719 C 164.03125 283.011719 166.273438 285.253906 166.273438 288.035156 C 166.273438 290.816406 164.03125 293.0625 161.25 293.0625 Z M 171.300781 279.660156 C 168.519531 279.660156 166.273438 277.414062 166.273438 274.636719 C 166.273438 271.855469 168.519531 269.609375 171.300781 269.609375 C 174.082031 269.609375 176.324219 271.855469 176.324219 274.636719 C 176.324219 277.414062 174.082031 279.660156 171.300781 279.660156 Z M 188.050781 279.660156 C 185.269531 279.660156 183.027344 277.414062 183.027344 274.636719 C 183.027344 271.855469 185.269531 269.609375 188.050781 269.609375 C 190.832031 269.609375 193.078125 271.855469 193.078125 274.636719 C 193.078125 277.414062 190.832031 279.660156 188.050781 279.660156 Z M 198.101562 293.0625 C 195.320312 293.0625 193.078125 290.816406 193.078125 288.035156 C 193.078125 285.253906 195.320312 283.011719 198.101562 283.011719 C 200.882812 283.011719 203.128906 285.253906 203.128906 288.035156 C 203.128906 290.816406 200.882812 293.0625 198.101562 293.0625 Z M 198.101562 293.0625 "/></g><path style=" stroke:none;fill-rule:nonzero;fill:#ffffff;fill-opacity:1;" d="M 37.242188 232.171875 C 36.160156 232.171875 35.441406 231.8125 34.71875 231.09375 L 20.300781 216.671875 C 18.859375 215.230469 18.859375 213.066406 20.300781 211.625 L 34.71875 197.207031 C 36.160156 195.765625 38.324219 195.765625 39.765625 197.207031 C 41.207031 198.648438 41.207031 200.8125 39.765625 202.253906 L 27.871094 214.148438 L 39.765625 226.046875 C 41.207031 227.488281 41.207031 229.648438 39.765625 231.09375 C 39.046875 231.8125 38.324219 232.171875 37.242188 232.171875 Z M 37.242188 232.171875 "/><path style=" stroke:none;fill-rule:nonzero;fill:#ffffff;fill-opacity:1;" d="M 73.289062 232.171875 C 72.210938 232.171875 71.488281 231.8125 70.769531 231.09375 C 69.324219 229.648438 69.324219 227.488281 70.769531 226.046875 L 82.664062 214.148438 L 70.769531 202.253906 C 69.324219 200.8125 69.324219 198.648438 70.769531 197.207031 C 72.210938 195.765625 74.371094 195.765625 75.8125 197.207031 L 90.234375 211.625 C 91.675781 213.066406 91.675781 215.230469 90.234375 216.671875 L 75.8125 231.09375 C 75.09375 231.8125 74.371094 232.171875 73.289062 232.171875 Z M 73.289062 232.171875 "/><g clip-rule="nonzero" clip-path="url(#e0ed872437)"><path style=" stroke:none;fill-rule:nonzero;fill:#ffffff;fill-opacity:1;" d="M 48.058594 239.382812 C 47.695312 239.382812 47.335938 239.382812 46.976562 239.023438 C 45.175781 238.300781 44.09375 236.5 44.8125 234.335938 L 59.234375 191.078125 C 59.953125 189.277344 61.753906 188.195312 63.917969 188.917969 C 65.722656 189.636719 66.800781 191.441406 66.082031 193.601562 L 51.664062 236.859375 C 50.941406 238.300781 49.5 239.382812 48.058594 239.382812 Z M 48.058594 239.382812 "/></g><g clip-rule="nonzero" clip-path="url(#d020558217)"><path style=" stroke:none;fill-rule:nonzero;fill:#ffffff;fill-opacity:1;" d="M 312.101562 193.867188 L 307.859375 193.867188 L 308.238281 193.019531 C 308.390625 192.675781 308.316406 192.273438 308.050781 192.007812 L 306.304688 190.261719 C 306.039062 189.996094 305.636719 189.921875 305.292969 190.074219 L 304.234375 190.542969 C 303.707031 190.257812 303.152344 190.027344 302.582031 189.859375 L 302.164062 188.777344 C 302.03125 188.425781 301.691406 188.195312 301.316406 188.195312 L 298.847656 188.195312 C 298.472656 188.195312 298.136719 188.425781 298 188.777344 L 297.585938 189.859375 C 297.011719 190.027344 296.457031 190.257812 295.933594 190.542969 L 294.875 190.074219 C 294.53125 189.921875 294.128906 189.996094 293.863281 190.261719 L 292.117188 192.007812 C 291.851562 192.273438 291.777344 192.675781 291.929688 193.019531 L 292.304688 193.867188 L 289.480469 193.867188 L 289.480469 192 C 289.480469 190.386719 288.167969 189.074219 286.550781 189.074219 L 285.742188 189.074219 C 284.128906 189.074219 282.816406 190.386719 282.816406 192 L 282.816406 193.867188 L 266.644531 193.867188 C 263.867188 193.867188 261.605469 196.125 261.605469 198.902344 L 261.605469 227.3125 C 261.605469 230.089844 263.867188 232.351562 266.644531 232.351562 L 280.023438 232.351562 L 280.023438 237.09375 L 274.648438 237.09375 C 272.203125 237.09375 270.21875 238.765625 270.21875 240.816406 L 270.21875 243.628906 C 270.21875 244.132812 270.625 244.539062 271.125 244.539062 L 307.621094 244.539062 C 308.125 244.539062 308.53125 244.132812 308.53125 243.628906 L 308.53125 240.816406 C 308.53125 238.765625 306.542969 237.09375 304.101562 237.09375 L 298.722656 237.09375 L 298.722656 232.351562 L 312.101562 232.351562 C 314.882812 232.351562 317.140625 230.089844 317.140625 227.3125 L 317.140625 198.902344 C 317.140625 196.125 314.882812 193.867188 312.101562 193.867188 Z M 293.355469 196.621094 C 293.523438 195.910156 293.804688 195.230469 294.191406 194.605469 C 294.347656 194.351562 294.367188 194.035156 294.246094 193.761719 L 293.84375 192.851562 L 294.707031 191.988281 L 295.617188 192.390625 C 295.890625 192.511719 296.207031 192.492188 296.460938 192.335938 C 297.085938 191.949219 297.765625 191.667969 298.476562 191.5 C 298.769531 191.429688 299.007812 191.222656 299.113281 190.941406 L 299.472656 190.011719 L 300.695312 190.011719 L 301.050781 190.941406 C 301.160156 191.222656 301.398438 191.429688 301.6875 191.5 C 302.398438 191.667969 303.078125 191.949219 303.703125 192.335938 C 303.957031 192.492188 304.273438 192.515625 304.546875 192.390625 L 305.460938 191.988281 L 306.324219 192.851562 L 305.917969 193.761719 C 305.796875 194.035156 305.816406 194.351562 305.976562 194.605469 C 306.359375 195.230469 306.640625 195.910156 306.808594 196.621094 C 306.878906 196.914062 307.089844 197.152344 307.367188 197.257812 L 308.296875 197.617188 L 308.296875 198.839844 L 307.367188 199.195312 C 307.089844 199.304688 306.878906 199.542969 306.808594 199.832031 C 306.640625 200.546875 306.359375 201.222656 305.976562 201.847656 C 305.816406 202.101562 305.796875 202.417969 305.917969 202.691406 L 306.324219 203.605469 L 305.460938 204.46875 L 304.546875 204.0625 C 304.273438 203.941406 303.957031 203.960938 303.703125 204.121094 C 303.078125 204.503906 302.402344 204.785156 301.6875 204.953125 C 301.398438 205.023438 301.160156 205.234375 301.050781 205.511719 L 300.695312 206.441406 L 299.472656 206.441406 L 299.113281 205.511719 C 299.007812 205.234375 298.769531 205.023438 298.476562 204.953125 C 297.765625 204.785156 297.085938 204.503906 296.460938 204.121094 C 296.207031 203.960938 295.890625 203.941406 295.617188 204.0625 L 294.707031 204.46875 L 293.84375 203.605469 L 294.246094 202.691406 C 294.371094 202.417969 294.347656 202.101562 294.191406 201.847656 C 293.804688 201.222656 293.523438 200.546875 293.355469 199.832031 C 293.285156 199.542969 293.078125 199.304688 292.796875 199.195312 L 291.867188 198.839844 L 291.867188 197.617188 L 292.796875 197.257812 C 293.078125 197.152344 293.285156 196.914062 293.355469 196.621094 Z M 282.9375 212.976562 L 285.359375 217.175781 C 285.523438 217.457031 285.824219 217.632812 286.148438 217.632812 C 286.472656 217.632812 286.773438 217.457031 286.933594 217.175781 L 289.359375 212.976562 C 289.4375 212.839844 289.480469 212.683594 289.480469 212.523438 L 289.480469 199.136719 L 290.050781 199.136719 L 290.050781 199.460938 C 290.050781 199.839844 290.28125 200.175781 290.632812 200.308594 L 291.714844 200.726562 C 291.882812 201.296875 292.113281 201.851562 292.398438 202.378906 L 291.929688 203.4375 C 291.777344 203.78125 291.851562 204.183594 292.117188 204.449219 L 293.863281 206.195312 C 294.128906 206.460938 294.53125 206.535156 294.875 206.382812 L 295.933594 205.910156 C 296.457031 206.195312 297.011719 206.425781 297.585938 206.597656 L 298 207.675781 C 298.136719 208.027344 298.472656 208.257812 298.847656 208.257812 L 301.316406 208.257812 C 301.691406 208.257812 302.03125 208.027344 302.164062 207.675781 L 302.582031 206.597656 C 303.152344 206.425781 303.707031 206.195312 304.234375 205.910156 L 305.292969 206.382812 C 305.636719 206.535156 306.039062 206.460938 306.304688 206.195312 L 308.050781 204.449219 C 308.316406 204.183594 308.390625 203.78125 308.238281 203.4375 L 307.765625 202.378906 C 308.050781 201.851562 308.28125 201.300781 308.453125 200.726562 L 309.53125 200.308594 C 309.882812 200.175781 310.113281 199.839844 310.113281 199.460938 L 310.113281 199.136719 L 311.871094 199.136719 L 311.871094 223.578125 L 266.878906 223.578125 L 266.878906 199.136719 L 282.816406 199.136719 L 282.816406 212.523438 C 282.816406 212.683594 282.855469 212.839844 282.9375 212.976562 Z M 285.296875 213.433594 L 286.996094 213.433594 L 286.148438 214.90625 Z M 291.726562 195.683594 C 291.722656 195.699219 291.71875 195.714844 291.714844 195.730469 L 290.632812 196.144531 C 290.28125 196.28125 290.050781 196.617188 290.050781 196.992188 L 290.050781 197.320312 L 289.480469 197.320312 L 289.480469 195.683594 Z M 285.742188 190.890625 L 286.550781 190.890625 C 287.164062 190.890625 287.664062 191.386719 287.664062 192 L 287.664062 211.613281 L 284.632812 211.613281 L 284.632812 192 C 284.632812 191.386719 285.132812 190.890625 285.742188 190.890625 Z M 306.714844 240.816406 L 306.714844 242.722656 L 272.035156 242.722656 L 272.035156 240.816406 C 272.035156 239.785156 273.230469 238.910156 274.648438 238.910156 L 304.101562 238.910156 C 305.515625 238.910156 306.714844 239.785156 306.714844 240.816406 Z M 296.90625 237.09375 L 281.839844 237.09375 L 281.839844 232.351562 L 296.90625 232.351562 Z M 315.324219 227.3125 C 315.324219 229.089844 313.878906 230.535156 312.101562 230.535156 L 266.644531 230.535156 C 264.871094 230.535156 263.425781 229.089844 263.425781 227.3125 L 263.425781 198.902344 C 263.425781 197.128906 264.871094 195.683594 266.644531 195.683594 L 282.816406 195.683594 L 282.816406 197.320312 L 266.542969 197.320312 C 265.726562 197.320312 265.058594 197.984375 265.058594 198.800781 L 265.058594 224.484375 C 265.058594 224.988281 265.46875 225.394531 265.96875 225.394531 L 312.777344 225.394531 C 313.28125 225.394531 313.6875 224.988281 313.6875 224.484375 L 313.6875 198.800781 C 313.6875 197.984375 313.023438 197.320312 312.207031 197.320312 L 310.113281 197.320312 L 310.113281 196.992188 C 310.113281 196.617188 309.882812 196.28125 309.53125 196.144531 L 308.453125 195.730469 C 308.445312 195.714844 308.441406 195.699219 308.4375 195.683594 L 312.101562 195.683594 C 313.878906 195.683594 315.324219 197.128906 315.324219 198.902344 Z M 300.082031 203.441406 C 302.957031 203.441406 305.296875 201.101562 305.296875 198.226562 C 305.296875 195.351562 302.957031 193.011719 300.082031 193.011719 C 297.207031 193.011719 294.867188 195.351562 294.867188 198.226562 C 294.867188 201.101562 297.207031 203.441406 300.082031 203.441406 Z M 300.082031 194.828125 C 301.957031 194.828125 303.480469 196.355469 303.480469 198.226562 C 303.480469 200.101562 301.957031 201.625 300.082031 201.625 C 298.210938 201.625 296.683594 200.101562 296.683594 198.226562 C 296.683594 196.355469 298.210938 194.828125 300.082031 194.828125 Z M 298.589844 220.375 L 300.929688 211.644531 C 301.058594 211.15625 301.558594 210.871094 302.042969 211 C 302.527344 211.128906 302.816406 211.628906 302.683594 212.113281 L 300.34375 220.847656 C 300.234375 221.253906 299.867188 221.519531 299.46875 221.519531 C 299.390625 221.519531 299.308594 221.511719 299.230469 221.488281 C 298.746094 221.359375 298.460938 220.863281 298.589844 220.375 Z M 292.453125 216.246094 C 292.453125 215.976562 292.574219 215.722656 292.777344 215.550781 L 296.589844 212.335938 C 296.972656 212.011719 297.546875 212.0625 297.871094 212.445312 C 298.195312 212.828125 298.144531 213.402344 297.761719 213.726562 L 294.773438 216.246094 L 297.761719 218.761719 C 298.144531 219.085938 298.195312 219.660156 297.871094 220.042969 C 297.691406 220.257812 297.433594 220.367188 297.175781 220.367188 C 296.96875 220.367188 296.761719 220.296875 296.589844 220.152344 L 292.777344 216.941406 C 292.574219 216.765625 292.453125 216.511719 292.453125 216.246094 Z M 303.511719 218.761719 L 306.5 216.246094 L 303.511719 213.726562 C 303.128906 213.402344 303.078125 212.828125 303.402344 212.445312 C 303.726562 212.0625 304.300781 212.011719 304.683594 212.335938 L 308.496094 215.550781 C 308.703125 215.722656 308.820312 215.976562 308.820312 216.246094 C 308.820312 216.511719 308.703125 216.765625 308.496094 216.941406 L 304.683594 220.152344 C 304.511719 220.296875 304.304688 220.367188 304.097656 220.367188 C 303.839844 220.367188 303.582031 220.257812 303.402344 220.042969 C 303.078125 219.660156 303.128906 219.085938 303.511719 218.761719 Z M 269.960938 219.507812 L 288.882812 219.507812 C 289.382812 219.507812 289.792969 219.914062 289.792969 220.417969 C 289.792969 220.917969 289.382812 221.324219 288.882812 221.324219 L 269.960938 221.324219 C 269.460938 221.324219 269.054688 220.917969 269.054688 220.417969 C 269.054688 219.914062 269.460938 219.507812 269.960938 219.507812 Z M 268.988281 213.085938 C 268.988281 212.585938 269.394531 212.179688 269.898438 212.179688 L 279.730469 212.179688 C 280.230469 212.179688 280.640625 212.585938 280.640625 213.085938 C 280.640625 213.589844 280.230469 213.996094 279.730469 213.996094 L 269.898438 213.996094 C 269.394531 213.996094 268.988281 213.589844 268.988281 213.085938 Z M 269.023438 216.753906 C 269.023438 216.25 269.429688 215.84375 269.929688 215.84375 L 279.761719 215.84375 C 280.265625 215.84375 280.671875 216.25 280.671875 216.753906 C 280.671875 217.253906 280.265625 217.660156 279.761719 217.660156 L 269.929688 217.660156 C 269.429688 217.660156 269.023438 217.253906 269.023438 216.753906 Z M 269.054688 202.09375 C 269.054688 201.589844 269.460938 201.183594 269.960938 201.183594 L 279.792969 201.183594 C 280.296875 201.183594 280.703125 201.589844 280.703125 202.09375 C 280.703125 202.59375 280.296875 203.003906 279.792969 203.003906 L 269.960938 203.003906 C 269.460938 203.003906 269.054688 202.59375 269.054688 202.09375 Z M 269.023438 205.757812 C 269.023438 205.257812 269.429688 204.847656 269.929688 204.847656 L 279.761719 204.847656 C 280.265625 204.847656 280.671875 205.257812 280.671875 205.757812 C 280.671875 206.261719 280.265625 206.667969 279.761719 206.667969 L 269.929688 206.667969 C 269.429688 206.667969 269.023438 206.261719 269.023438 205.757812 Z M 268.988281 209.421875 C 268.988281 208.921875 269.394531 208.515625 269.898438 208.515625 L 279.730469 208.515625 C 280.230469 208.515625 280.640625 208.921875 280.640625 209.421875 C 280.640625 209.925781 280.230469 210.332031 279.730469 210.332031 L 269.898438 210.332031 C 269.394531 210.332031 268.988281 209.925781 268.988281 209.421875 Z M 268.988281 209.421875 "/></g><path style=" stroke:none;fill-rule:nonzero;fill:#ffffff;fill-opacity:1;" d="M 188.738281 182.101562 C 188.449219 182.101562 188.203125 181.996094 188 181.789062 L 177.738281 171.515625 C 177.640625 171.417969 177.566406 171.308594 177.515625 171.179688 C 177.464844 171.054688 177.4375 170.921875 177.4375 170.785156 C 177.4375 170.648438 177.464844 170.515625 177.515625 170.390625 C 177.566406 170.261719 177.640625 170.152344 177.738281 170.054688 L 192.410156 155.378906 C 192.507812 155.285156 192.621094 155.210938 192.746094 155.15625 C 192.875 155.105469 193.007812 155.078125 193.144531 155.078125 C 193.28125 155.078125 193.414062 155.105469 193.539062 155.15625 C 193.664062 155.210938 193.777344 155.285156 193.875 155.378906 L 204.148438 165.652344 C 204.347656 165.855469 204.449219 166.097656 204.449219 166.378906 C 204.449219 166.667969 204.351562 166.914062 204.148438 167.117188 L 189.476562 181.789062 C 189.273438 181.996094 189.027344 182.101562 188.738281 182.101562 Z M 179.9375 170.789062 L 188.738281 179.589844 L 201.949219 166.378906 L 193.105469 157.582031 Z M 179.9375 170.789062 "/><g clip-rule="nonzero" clip-path="url(#6f8ce809d8)"><path style=" stroke:none;fill-rule:nonzero;fill:#ffffff;fill-opacity:1;" d="M 173.152344 187.414062 C 172.984375 187.414062 172.824219 187.375 172.675781 187.296875 C 172.527344 187.21875 172.40625 187.113281 172.308594 186.976562 C 172.210938 186.839844 172.152344 186.6875 172.128906 186.519531 C 172.105469 186.355469 172.121094 186.191406 172.175781 186.035156 L 177.488281 170.46875 C 177.546875 170.300781 177.644531 170.15625 177.777344 170.039062 C 177.910156 169.917969 178.0625 169.839844 178.238281 169.796875 C 178.410156 169.757812 178.582031 169.761719 178.753906 169.8125 C 178.925781 169.859375 179.074219 169.949219 179.203125 170.074219 L 189.476562 180.347656 C 189.746094 180.617188 189.839844 180.941406 189.753906 181.3125 C 189.667969 181.6875 189.445312 181.9375 189.082031 182.058594 L 173.515625 187.375 C 173.398438 187.410156 173.277344 187.421875 173.152344 187.414062 Z M 178.910156 172.699219 L 174.824219 184.707031 L 186.878906 180.617188 Z M 178.910156 172.699219 "/></g><g clip-rule="nonzero" clip-path="url(#545153ee69)"><path style=" stroke:none;fill-rule:nonzero;fill:#ffffff;fill-opacity:1;" d="M 173.152344 187.414062 C 172.984375 187.414062 172.824219 187.375 172.675781 187.296875 C 172.527344 187.21875 172.40625 187.113281 172.308594 186.976562 C 172.210938 186.839844 172.152344 186.6875 172.128906 186.519531 C 172.105469 186.355469 172.121094 186.191406 172.175781 186.035156 L 174.480469 179.246094 C 174.558594 179.011719 174.707031 178.832031 174.914062 178.699219 C 175.125 178.570312 175.355469 178.519531 175.601562 178.550781 C 177.003906 178.730469 178.207031 179.324219 179.203125 180.328125 C 180.199219 181.328125 180.789062 182.527344 180.976562 183.929688 C 181.007812 184.175781 180.960938 184.402344 180.828125 184.613281 C 180.699219 184.824219 180.515625 184.96875 180.28125 185.046875 L 173.496094 187.351562 C 173.382812 187.394531 173.269531 187.414062 173.152344 187.414062 Z M 176.152344 180.804688 L 174.824219 184.707031 L 178.722656 183.378906 C 178.515625 182.773438 178.1875 182.246094 177.734375 181.792969 C 177.28125 181.34375 176.753906 181.011719 176.152344 180.804688 Z M 176.152344 180.804688 "/></g><path style=" stroke:none;fill-rule:nonzero;fill:#ffffff;fill-opacity:1;" d="M 203.410156 167.855469 L 191.675781 156.105469 L 195.347656 152.445312 C 195.644531 152.164062 195.984375 151.945312 196.363281 151.792969 C 196.746094 151.640625 197.140625 151.566406 197.546875 151.566406 C 197.957031 151.566406 198.351562 151.640625 198.734375 151.792969 C 199.113281 151.945312 199.453125 152.164062 199.75 152.445312 L 207.085938 159.78125 C 207.375 160.074219 207.601562 160.410156 207.757812 160.789062 C 207.917969 161.171875 207.996094 161.566406 207.996094 161.980469 C 207.996094 162.394531 207.917969 162.789062 207.757812 163.171875 C 207.601562 163.550781 207.375 163.886719 207.085938 164.179688 Z M 194.613281 156.105469 L 203.410156 164.917969 L 205.621094 162.71875 C 205.71875 162.621094 205.796875 162.507812 205.847656 162.378906 C 205.902344 162.25 205.929688 162.117188 205.929688 161.980469 C 205.929688 161.84375 205.902344 161.710938 205.847656 161.582031 C 205.796875 161.453125 205.71875 161.339844 205.621094 161.242188 L 198.296875 153.90625 C 198.199219 153.808594 198.085938 153.734375 197.960938 153.683594 C 197.832031 153.632812 197.699219 153.605469 197.5625 153.605469 C 197.425781 153.605469 197.296875 153.632812 197.167969 153.683594 C 197.042969 153.734375 196.929688 153.808594 196.832031 153.90625 Z M 194.613281 156.105469 "/><path style=" stroke:none;fill-rule:nonzero;fill:#ffffff;fill-opacity:1;" d="M 188.738281 182.101562 C 188.449219 182.101562 188.203125 181.996094 188 181.789062 L 185.074219 178.863281 C 184.976562 178.765625 184.902344 178.652344 184.847656 178.527344 C 184.792969 178.398438 184.769531 178.265625 184.769531 178.128906 C 184.769531 177.988281 184.792969 177.855469 184.847656 177.726562 C 184.902344 177.601562 184.976562 177.488281 185.074219 177.390625 L 199.75 162.71875 C 199.84375 162.621094 199.957031 162.546875 200.085938 162.492188 C 200.210938 162.441406 200.34375 162.414062 200.480469 162.414062 C 200.617188 162.414062 200.75 162.441406 200.875 162.492188 C 201.003906 162.546875 201.113281 162.621094 201.210938 162.71875 L 204.148438 165.652344 C 204.347656 165.855469 204.449219 166.097656 204.449219 166.378906 C 204.449219 166.667969 204.351562 166.914062 204.148438 167.117188 L 189.476562 181.789062 C 189.273438 181.996094 189.027344 182.101562 188.738281 182.101562 Z M 187.273438 178.128906 L 188.738281 179.589844 L 201.949219 166.378906 L 200.484375 164.917969 Z M 187.273438 178.128906 "/><path style=" stroke:none;fill-rule:nonzero;fill:#ffffff;fill-opacity:1;" d="M 181.402344 174.765625 C 181.113281 174.773438 180.863281 174.675781 180.65625 174.472656 L 177.726562 171.539062 C 177.632812 171.441406 177.558594 171.328125 177.503906 171.203125 C 177.453125 171.074219 177.425781 170.941406 177.425781 170.804688 C 177.425781 170.667969 177.453125 170.539062 177.503906 170.410156 C 177.558594 170.285156 177.632812 170.171875 177.726562 170.074219 L 192.410156 155.378906 C 192.507812 155.285156 192.621094 155.210938 192.746094 155.15625 C 192.875 155.105469 193.007812 155.078125 193.144531 155.078125 C 193.28125 155.078125 193.414062 155.105469 193.539062 155.15625 C 193.664062 155.210938 193.777344 155.285156 193.875 155.378906 L 196.8125 158.316406 C 197.011719 158.519531 197.113281 158.761719 197.113281 159.042969 C 197.113281 159.332031 197.015625 159.578125 196.8125 159.78125 L 182.136719 174.472656 C 181.933594 174.671875 181.6875 174.769531 181.402344 174.765625 Z M 179.9375 170.789062 L 181.402344 172.253906 L 194.613281 159.042969 L 193.105469 157.582031 Z M 179.9375 170.789062 "/><g clip-rule="nonzero" clip-path="url(#a63b6643b5)"><path style=" stroke:none;fill-rule:nonzero;fill:#ffffff;fill-opacity:1;" d="M 169.238281 186.925781 L 150.5625 186.925781 C 150.421875 186.925781 150.292969 186.902344 150.164062 186.847656 C 150.035156 186.796875 149.925781 186.71875 149.828125 186.625 C 149.730469 186.527344 149.65625 186.414062 149.601562 186.285156 C 149.550781 186.160156 149.523438 186.027344 149.523438 185.890625 L 149.523438 179.664062 C 149.523438 179.527344 149.550781 179.394531 149.601562 179.265625 C 149.65625 179.140625 149.730469 179.027344 149.828125 178.929688 C 149.925781 178.832031 150.035156 178.757812 150.164062 178.703125 C 150.292969 178.652344 150.421875 178.625 150.5625 178.625 L 159.898438 178.625 L 159.898438 174.472656 L 150.5625 174.472656 C 150.421875 174.472656 150.292969 174.449219 150.164062 174.394531 C 150.035156 174.34375 149.925781 174.269531 149.828125 174.171875 C 149.730469 174.074219 149.65625 173.960938 149.601562 173.832031 C 149.550781 173.707031 149.523438 173.574219 149.523438 173.4375 L 149.523438 167.210938 C 149.523438 167.074219 149.550781 166.941406 149.601562 166.8125 C 149.65625 166.6875 149.730469 166.574219 149.828125 166.476562 C 149.925781 166.378906 150.035156 166.304688 150.164062 166.25 C 150.292969 166.199219 150.421875 166.171875 150.5625 166.171875 L 166.125 166.171875 L 166.125 163.058594 C 166.125 162.921875 166.152344 162.789062 166.207031 162.664062 C 166.257812 162.535156 166.332031 162.421875 166.429688 162.324219 C 166.527344 162.230469 166.640625 162.152344 166.765625 162.101562 C 166.894531 162.046875 167.027344 162.023438 167.164062 162.023438 C 167.300781 162.023438 167.433594 162.046875 167.5625 162.101562 C 167.6875 162.152344 167.800781 162.230469 167.898438 162.324219 C 167.996094 162.421875 168.070312 162.535156 168.125 162.664062 C 168.175781 162.789062 168.203125 162.921875 168.203125 163.058594 L 168.203125 167.210938 C 168.203125 167.347656 168.175781 167.480469 168.125 167.609375 C 168.070312 167.734375 167.996094 167.847656 167.898438 167.945312 C 167.800781 168.042969 167.6875 168.117188 167.5625 168.167969 C 167.433594 168.222656 167.300781 168.25 167.164062 168.25 L 151.597656 168.25 L 151.597656 172.398438 L 160.9375 172.398438 C 161.074219 172.398438 161.207031 172.425781 161.335938 172.476562 C 161.460938 172.53125 161.574219 172.605469 161.671875 172.703125 C 161.769531 172.800781 161.84375 172.914062 161.898438 173.039062 C 161.949219 173.167969 161.976562 173.300781 161.976562 173.4375 L 161.976562 179.664062 C 161.976562 179.800781 161.949219 179.933594 161.898438 180.058594 C 161.84375 180.1875 161.769531 180.300781 161.671875 180.398438 C 161.574219 180.492188 161.460938 180.570312 161.335938 180.621094 C 161.207031 180.675781 161.074219 180.699219 160.9375 180.699219 L 151.597656 180.699219 L 151.597656 184.851562 L 169.238281 184.851562 C 169.378906 184.851562 169.507812 184.878906 169.636719 184.929688 C 169.765625 184.984375 169.875 185.058594 169.972656 185.15625 C 170.070312 185.253906 170.144531 185.363281 170.199219 185.492188 C 170.25 185.621094 170.277344 185.75 170.277344 185.890625 C 170.277344 186.027344 170.25 186.160156 170.199219 186.285156 C 170.144531 186.414062 170.070312 186.527344 169.972656 186.625 C 169.875 186.71875 169.765625 186.796875 169.636719 186.847656 C 169.507812 186.902344 169.378906 186.925781 169.238281 186.925781 Z M 169.238281 186.925781 "/></g><path style=" stroke:none;fill-rule:nonzero;fill:#ffffff;fill-opacity:1;" d="M 171.316406 155.796875 L 163.011719 155.796875 C 162.875 155.796875 162.742188 155.769531 162.617188 155.714844 C 162.488281 155.664062 162.378906 155.589844 162.28125 155.492188 C 162.183594 155.394531 162.109375 155.28125 162.054688 155.15625 C 162.003906 155.027344 161.976562 154.894531 161.976562 154.757812 L 161.976562 152.683594 C 161.972656 152.335938 161.832031 152.058594 161.550781 151.851562 C 161.246094 151.617188 160.953125 151.367188 160.679688 151.097656 C 160.40625 150.828125 160.148438 150.542969 159.910156 150.242188 C 159.671875 149.941406 159.449219 149.625 159.25 149.296875 C 159.050781 148.96875 158.871094 148.628906 158.710938 148.28125 C 158.554688 147.929688 158.417969 147.570312 158.304688 147.203125 C 158.1875 146.835938 158.097656 146.464844 158.03125 146.085938 C 157.960938 145.707031 157.917969 145.324219 157.898438 144.941406 C 157.875 144.554688 157.878906 144.171875 157.90625 143.789062 C 157.929688 143.40625 157.980469 143.023438 158.054688 142.648438 C 158.128906 142.269531 158.226562 141.898438 158.34375 141.53125 C 158.464844 141.167969 158.605469 140.808594 158.769531 140.460938 C 158.933594 140.113281 159.117188 139.777344 159.320312 139.453125 C 159.527344 139.125 159.75 138.816406 159.996094 138.515625 C 160.238281 138.21875 160.5 137.9375 160.777344 137.671875 C 161.054688 137.40625 161.351562 137.160156 161.660156 136.929688 C 161.96875 136.703125 162.289062 136.492188 162.625 136.304688 C 162.960938 136.113281 163.304688 135.945312 163.660156 135.800781 C 164.015625 135.652344 164.378906 135.527344 164.75 135.425781 C 165.121094 135.324219 165.496094 135.246094 165.875 135.191406 C 166.257812 135.136719 166.640625 135.101562 167.023438 135.09375 C 167.410156 135.085938 167.792969 135.101562 168.175781 135.140625 C 168.558594 135.179688 168.9375 135.242188 169.3125 135.328125 C 169.6875 135.414062 170.054688 135.523438 170.414062 135.65625 C 170.777344 135.789062 171.128906 135.941406 171.472656 136.117188 C 171.8125 136.289062 172.144531 136.484375 172.464844 136.703125 C 172.78125 136.917969 173.085938 137.152344 173.375 137.40625 C 173.664062 137.660156 173.9375 137.929688 174.191406 138.214844 C 174.449219 138.503906 174.6875 138.804688 174.90625 139.121094 C 175.125 139.4375 175.320312 139.765625 175.5 140.109375 C 175.679688 140.449219 175.835938 140.800781 175.96875 141.160156 C 176.105469 141.519531 176.214844 141.886719 176.304688 142.261719 C 176.394531 142.632812 176.460938 143.011719 176.503906 143.394531 C 176.589844 144.199219 176.570312 145 176.445312 145.796875 C 176.320312 146.59375 176.097656 147.363281 175.777344 148.105469 C 175.453125 148.84375 175.042969 149.53125 174.539062 150.164062 C 174.039062 150.796875 173.464844 151.355469 172.820312 151.84375 C 172.542969 152.050781 172.40625 152.328125 172.40625 152.671875 L 172.40625 154.746094 C 172.40625 154.890625 172.378906 155.027344 172.324219 155.160156 C 172.269531 155.292969 172.191406 155.40625 172.085938 155.507812 C 171.984375 155.605469 171.863281 155.679688 171.730469 155.730469 C 171.597656 155.78125 171.457031 155.804688 171.316406 155.796875 Z M 164.050781 153.71875 L 170.277344 153.71875 L 170.277344 152.683594 C 170.277344 152.195312 170.390625 151.730469 170.609375 151.296875 C 170.828125 150.859375 171.132812 150.496094 171.523438 150.203125 C 171.753906 150.027344 171.976562 149.839844 172.183594 149.640625 C 172.394531 149.441406 172.589844 149.226562 172.773438 149.003906 C 172.957031 148.777344 173.128906 148.542969 173.285156 148.300781 C 173.441406 148.054688 173.582031 147.800781 173.707031 147.539062 C 173.832031 147.28125 173.941406 147.011719 174.035156 146.738281 C 174.128906 146.460938 174.207031 146.183594 174.265625 145.898438 C 174.328125 145.617188 174.371094 145.328125 174.394531 145.039062 C 174.421875 144.75 174.429688 144.460938 174.421875 144.171875 C 174.410156 143.882812 174.386719 143.59375 174.34375 143.308594 C 174.296875 143.019531 174.238281 142.738281 174.160156 142.457031 C 174.082031 142.179688 173.988281 141.90625 173.878906 141.636719 C 173.769531 141.367188 173.644531 141.105469 173.503906 140.855469 C 173.359375 140.601562 173.207031 140.355469 173.035156 140.121094 C 172.863281 139.886719 172.679688 139.664062 172.484375 139.453125 C 172.285156 139.238281 172.074219 139.039062 171.855469 138.851562 C 171.632812 138.664062 171.402344 138.492188 171.160156 138.332031 C 170.242188 137.722656 169.234375 137.34375 168.144531 137.191406 C 167.054688 137.042969 165.984375 137.132812 164.933594 137.46875 C 164.253906 137.679688 163.617188 137.988281 163.027344 138.386719 C 162.4375 138.789062 161.917969 139.265625 161.472656 139.820312 C 161.023438 140.375 160.667969 140.980469 160.398438 141.640625 C 160.128906 142.300781 159.964844 142.988281 159.898438 143.695312 C 159.847656 144.3125 159.871094 144.925781 159.972656 145.539062 C 160.074219 146.148438 160.25 146.738281 160.503906 147.304688 C 160.753906 147.871094 161.074219 148.394531 161.457031 148.882812 C 161.839844 149.367188 162.28125 149.796875 162.773438 150.171875 C 163.175781 150.464844 163.488281 150.832031 163.714844 151.273438 C 163.9375 151.714844 164.050781 152.1875 164.050781 152.683594 Z M 164.050781 153.71875 "/><path style=" stroke:none;fill-rule:nonzero;fill:#ffffff;fill-opacity:1;" d="M 169.238281 159.945312 L 165.089844 159.945312 C 164.675781 159.945312 164.277344 159.867188 163.898438 159.710938 C 163.515625 159.550781 163.179688 159.328125 162.886719 159.035156 C 162.597656 158.742188 162.371094 158.40625 162.210938 158.023438 C 162.054688 157.644531 161.976562 157.246094 161.976562 156.832031 L 161.976562 154.757812 C 161.976562 154.621094 162.003906 154.488281 162.054688 154.359375 C 162.109375 154.234375 162.183594 154.121094 162.28125 154.023438 C 162.378906 153.925781 162.488281 153.851562 162.617188 153.800781 C 162.742188 153.746094 162.875 153.71875 163.011719 153.71875 L 171.316406 153.71875 C 171.453125 153.71875 171.585938 153.746094 171.710938 153.800781 C 171.839844 153.851562 171.953125 153.925781 172.050781 154.023438 C 172.144531 154.121094 172.222656 154.234375 172.273438 154.359375 C 172.328125 154.488281 172.351562 154.621094 172.351562 154.757812 L 172.351562 156.832031 C 172.351562 157.246094 172.273438 157.644531 172.117188 158.023438 C 171.957031 158.40625 171.734375 158.742188 171.441406 159.035156 C 171.148438 159.328125 170.8125 159.550781 170.429688 159.710938 C 170.050781 159.867188 169.652344 159.945312 169.238281 159.945312 Z M 164.050781 155.796875 L 164.050781 156.832031 C 164.050781 156.972656 164.078125 157.101562 164.128906 157.230469 C 164.183594 157.359375 164.257812 157.46875 164.355469 157.566406 C 164.453125 157.664062 164.566406 157.738281 164.691406 157.792969 C 164.820312 157.84375 164.953125 157.871094 165.089844 157.871094 L 169.238281 157.871094 C 169.378906 157.871094 169.507812 157.84375 169.636719 157.792969 C 169.765625 157.738281 169.875 157.664062 169.972656 157.566406 C 170.070312 157.46875 170.144531 157.359375 170.199219 157.230469 C 170.25 157.101562 170.277344 156.972656 170.277344 156.832031 L 170.277344 155.796875 Z M 164.050781 155.796875 "/><g clip-rule="nonzero" clip-path="url(#6f11c00c36)"><path style=" stroke:none;fill-rule:nonzero;fill:#ffffff;fill-opacity:1;" d="M 167.164062 132.964844 C 167.027344 132.964844 166.894531 132.941406 166.765625 132.886719 C 166.640625 132.835938 166.527344 132.757812 166.429688 132.664062 C 166.332031 132.566406 166.257812 132.453125 166.207031 132.324219 C 166.152344 132.199219 166.125 132.066406 166.125 131.929688 L 166.125 129.851562 C 166.125 129.714844 166.152344 129.582031 166.207031 129.457031 C 166.257812 129.328125 166.332031 129.214844 166.429688 129.121094 C 166.527344 129.023438 166.640625 128.945312 166.765625 128.894531 C 166.894531 128.839844 167.027344 128.816406 167.164062 128.816406 C 167.300781 128.816406 167.433594 128.839844 167.5625 128.894531 C 167.6875 128.945312 167.800781 129.023438 167.898438 129.121094 C 167.996094 129.214844 168.070312 129.328125 168.125 129.457031 C 168.175781 129.582031 168.203125 129.714844 168.203125 129.851562 L 168.203125 131.929688 C 168.203125 132.066406 168.175781 132.199219 168.125 132.324219 C 168.070312 132.453125 167.996094 132.566406 167.898438 132.664062 C 167.800781 132.757812 167.6875 132.835938 167.5625 132.886719 C 167.433594 132.941406 167.300781 132.964844 167.164062 132.964844 Z M 167.164062 132.964844 "/></g><path style=" stroke:none;fill-rule:nonzero;fill:#ffffff;fill-opacity:1;" d="M 158.355469 136.609375 C 158.070312 136.605469 157.828125 136.507812 157.628906 136.308594 L 156.152344 134.84375 C 156.058594 134.746094 155.980469 134.632812 155.929688 134.507812 C 155.875 134.378906 155.847656 134.246094 155.851562 134.109375 C 155.851562 133.96875 155.875 133.835938 155.929688 133.710938 C 155.980469 133.582031 156.058594 133.46875 156.15625 133.371094 C 156.253906 133.273438 156.363281 133.199219 156.492188 133.144531 C 156.621094 133.09375 156.753906 133.066406 156.890625 133.066406 C 157.03125 133.066406 157.164062 133.09375 157.289062 133.144531 C 157.417969 133.199219 157.53125 133.273438 157.628906 133.371094 L 159.089844 134.84375 C 159.1875 134.941406 159.261719 135.054688 159.3125 135.179688 C 159.367188 135.308594 159.394531 135.4375 159.394531 135.574219 C 159.394531 135.714844 159.367188 135.84375 159.3125 135.972656 C 159.261719 136.097656 159.1875 136.210938 159.089844 136.308594 C 158.886719 136.511719 158.640625 136.609375 158.355469 136.609375 Z M 158.355469 136.609375 "/><path style=" stroke:none;fill-rule:nonzero;fill:#ffffff;fill-opacity:1;" d="M 154.710938 145.417969 L 152.636719 145.417969 C 152.5 145.417969 152.367188 145.390625 152.238281 145.339844 C 152.113281 145.285156 152 145.210938 151.902344 145.113281 C 151.804688 145.015625 151.730469 144.90625 151.675781 144.777344 C 151.625 144.652344 151.597656 144.519531 151.597656 144.382812 C 151.597656 144.242188 151.625 144.109375 151.675781 143.984375 C 151.730469 143.855469 151.804688 143.746094 151.902344 143.648438 C 152 143.550781 152.113281 143.476562 152.238281 143.421875 C 152.367188 143.371094 152.5 143.34375 152.636719 143.34375 L 154.710938 143.34375 C 154.847656 143.34375 154.980469 143.371094 155.109375 143.421875 C 155.234375 143.476562 155.347656 143.550781 155.445312 143.648438 C 155.542969 143.746094 155.617188 143.855469 155.671875 143.984375 C 155.722656 144.109375 155.75 144.242188 155.75 144.382812 C 155.75 144.519531 155.722656 144.652344 155.671875 144.777344 C 155.617188 144.90625 155.542969 145.015625 155.445312 145.113281 C 155.347656 145.210938 155.234375 145.285156 155.109375 145.339844 C 154.980469 145.390625 154.847656 145.417969 154.710938 145.417969 Z M 154.710938 145.417969 "/><path style=" stroke:none;fill-rule:nonzero;fill:#ffffff;fill-opacity:1;" d="M 156.890625 155.691406 C 156.605469 155.695312 156.359375 155.59375 156.152344 155.390625 C 156.054688 155.292969 155.980469 155.179688 155.925781 155.054688 C 155.875 154.925781 155.847656 154.792969 155.847656 154.652344 C 155.847656 154.515625 155.875 154.382812 155.925781 154.253906 C 155.980469 154.128906 156.054688 154.015625 156.152344 153.917969 L 157.628906 152.453125 C 157.722656 152.34375 157.832031 152.257812 157.964844 152.195312 C 158.09375 152.132812 158.230469 152.097656 158.375 152.09375 C 158.519531 152.085938 158.660156 152.109375 158.792969 152.164062 C 158.929688 152.214844 159.046875 152.292969 159.148438 152.394531 C 159.253906 152.496094 159.328125 152.617188 159.382812 152.75 C 159.433594 152.886719 159.457031 153.023438 159.453125 153.167969 C 159.449219 153.3125 159.414062 153.449219 159.351562 153.582031 C 159.289062 153.710938 159.199219 153.824219 159.089844 153.917969 L 157.628906 155.390625 C 157.425781 155.59375 157.179688 155.695312 156.890625 155.691406 Z M 156.890625 155.691406 "/><path style=" stroke:none;fill-rule:nonzero;fill:#ffffff;fill-opacity:1;" d="M 177.4375 155.691406 C 177.152344 155.695312 176.90625 155.59375 176.699219 155.390625 L 175.238281 153.917969 C 175.128906 153.824219 175.042969 153.710938 174.980469 153.582031 C 174.914062 153.449219 174.882812 153.3125 174.875 153.167969 C 174.871094 153.023438 174.894531 152.886719 174.945312 152.75 C 175 152.617188 175.078125 152.496094 175.179688 152.394531 C 175.28125 152.292969 175.398438 152.214844 175.535156 152.164062 C 175.667969 152.109375 175.808594 152.085938 175.953125 152.09375 C 176.097656 152.097656 176.234375 152.132812 176.363281 152.195312 C 176.496094 152.257812 176.605469 152.34375 176.699219 152.453125 L 178.175781 153.917969 C 178.273438 154.015625 178.347656 154.128906 178.402344 154.253906 C 178.453125 154.382812 178.480469 154.515625 178.480469 154.652344 C 178.480469 154.792969 178.453125 154.925781 178.402344 155.054688 C 178.347656 155.179688 178.273438 155.292969 178.175781 155.390625 C 177.96875 155.59375 177.726562 155.695312 177.4375 155.691406 Z M 177.4375 155.691406 "/><path style=" stroke:none;fill-rule:nonzero;fill:#ffffff;fill-opacity:1;" d="M 181.691406 145.417969 L 179.617188 145.417969 C 179.480469 145.417969 179.347656 145.390625 179.21875 145.339844 C 179.09375 145.285156 178.980469 145.210938 178.882812 145.113281 C 178.785156 145.015625 178.710938 144.90625 178.65625 144.777344 C 178.605469 144.652344 178.578125 144.519531 178.578125 144.382812 C 178.578125 144.242188 178.605469 144.109375 178.65625 143.984375 C 178.710938 143.855469 178.785156 143.746094 178.882812 143.648438 C 178.980469 143.550781 179.09375 143.476562 179.21875 143.421875 C 179.347656 143.371094 179.480469 143.34375 179.617188 143.34375 L 181.691406 143.34375 C 181.828125 143.34375 181.960938 143.371094 182.089844 143.421875 C 182.214844 143.476562 182.328125 143.550781 182.425781 143.648438 C 182.523438 143.746094 182.597656 143.855469 182.652344 143.984375 C 182.703125 144.109375 182.730469 144.242188 182.730469 144.382812 C 182.730469 144.519531 182.703125 144.652344 182.652344 144.777344 C 182.597656 144.90625 182.523438 145.015625 182.425781 145.113281 C 182.328125 145.210938 182.214844 145.285156 182.089844 145.339844 C 181.960938 145.390625 181.828125 145.417969 181.691406 145.417969 Z M 181.691406 145.417969 "/><path style=" stroke:none;fill-rule:nonzero;fill:#ffffff;fill-opacity:1;" d="M 175.972656 136.609375 C 175.6875 136.609375 175.441406 136.511719 175.238281 136.308594 C 175.140625 136.210938 175.066406 136.097656 175.015625 135.972656 C 174.960938 135.84375 174.9375 135.714844 174.9375 135.574219 C 174.9375 135.4375 174.960938 135.308594 175.015625 135.179688 C 175.066406 135.054688 175.140625 134.941406 175.238281 134.84375 L 176.699219 133.371094 C 176.796875 133.273438 176.910156 133.199219 177.039062 133.144531 C 177.167969 133.09375 177.300781 133.066406 177.4375 133.066406 C 177.574219 133.066406 177.707031 133.09375 177.835938 133.144531 C 177.964844 133.199219 178.078125 133.273438 178.175781 133.371094 C 178.273438 133.46875 178.347656 133.582031 178.398438 133.710938 C 178.453125 133.835938 178.480469 133.96875 178.480469 134.109375 C 178.480469 134.246094 178.453125 134.378906 178.398438 134.507812 C 178.347656 134.632812 178.273438 134.746094 178.175781 134.84375 L 176.699219 136.308594 C 176.5 136.507812 176.257812 136.605469 175.972656 136.609375 Z M 175.972656 136.609375 "/><path style=" stroke:none;fill-rule:nonzero;fill:#ffffff;fill-opacity:1;" d="M 171.316406 145.417969 C 171.175781 145.417969 171.046875 145.390625 170.917969 145.339844 C 170.789062 145.285156 170.679688 145.210938 170.582031 145.113281 C 170.484375 145.015625 170.410156 144.90625 170.355469 144.777344 C 170.304688 144.652344 170.277344 144.519531 170.277344 144.382812 C 170.277344 143.96875 170.199219 143.570312 170.039062 143.191406 C 169.882812 142.808594 169.65625 142.472656 169.367188 142.179688 C 169.074219 141.886719 168.738281 141.664062 168.355469 141.503906 C 167.972656 141.347656 167.578125 141.269531 167.164062 141.269531 C 167.027344 141.269531 166.894531 141.242188 166.765625 141.1875 C 166.640625 141.136719 166.527344 141.0625 166.429688 140.964844 C 166.332031 140.867188 166.257812 140.753906 166.207031 140.628906 C 166.152344 140.5 166.125 140.367188 166.125 140.230469 C 166.125 140.09375 166.152344 139.960938 166.207031 139.832031 C 166.257812 139.707031 166.332031 139.59375 166.429688 139.496094 C 166.527344 139.398438 166.640625 139.324219 166.765625 139.269531 C 166.894531 139.21875 167.027344 139.191406 167.164062 139.191406 C 167.503906 139.191406 167.84375 139.226562 168.175781 139.292969 C 168.511719 139.359375 168.835938 139.457031 169.148438 139.585938 C 169.464844 139.71875 169.765625 139.878906 170.046875 140.066406 C 170.332031 140.257812 170.59375 140.472656 170.832031 140.710938 C 171.074219 140.953125 171.289062 141.214844 171.476562 141.5 C 171.667969 141.78125 171.828125 142.082031 171.957031 142.394531 C 172.089844 142.710938 172.1875 143.035156 172.253906 143.367188 C 172.320312 143.703125 172.351562 144.039062 172.351562 144.382812 C 172.351562 144.519531 172.328125 144.652344 172.273438 144.777344 C 172.222656 144.90625 172.144531 145.015625 172.050781 145.113281 C 171.953125 145.210938 171.839844 145.285156 171.710938 145.339844 C 171.585938 145.390625 171.453125 145.417969 171.316406 145.417969 Z M 171.316406 145.417969 "/></g></svg>